<?xml version="1.0" encoding="UTF-8"?>
<svg width="802px" height="625px" viewBox="0 0 802 625" version="1.1" xmlns="http://www.w3.org/2000/svg" xmlns:xlink="http://www.w3.org/1999/xlink">
    <title>Graphic</title>
    <defs>
        <path d="M392.387004,116.051858 C457.657334,116.051858 512.489455,160.017407 527.952086,219.48703 C558.789196,200.331779 598.571307,206.056007 619.464718,233.693411 C638.329105,258.647077 635.721956,293.431104 615.183865,317.816701 C665.617938,325.476744 704.238292,368.542488 704.238292,420.52137 C704.238292,477.915205 657.152174,524.442102 599.068503,524.442102 C587.841949,524.442102 577.026243,522.703945 566.881968,519.485121 C559.135429,551.600762 529.808217,575.490882 494.813234,575.490882 C469.854639,575.490882 447.779021,563.338904 434.357941,544.716964 C409.922858,582.920689 366.673839,608.307955 317.396372,608.307955 C261.666106,608.307955 213.646491,575.836526 191.826918,529.079622 C175.342314,538.86863 156.039555,544.49698 135.406911,544.49698 C74.7978629,544.49698 25.6645218,495.92943 25.6645218,436.018321 C25.6645218,382.712716 64.5607365,338.387195 115.82852,329.26096 C110.76697,317.233992 107.971313,304.02476 107.971313,290.164663 C107.971313,234.281191 153.419654,188.978687 209.483023,188.978687 C228.719714,188.978687 246.706654,194.312338 262.036668,203.576979 C282.40366,152.341637 333.087411,116.051858 392.387004,116.051858 Z" id="path-1"></path>
        <linearGradient x1="26.8225622%" y1="28.8210456%" x2="64.7241219%" y2="61.1037067%" id="linearGradient-3">
            <stop stop-color="#F9F340" offset="0%"></stop>
            <stop stop-color="#D1FC47" offset="35.2447917%"></stop>
            <stop stop-color="#9EFF48" offset="100%"></stop>
        </linearGradient>
    </defs>
    <g id="Graphic" stroke="none" fill="none" transform="translate(528.1055, 512.4861) rotate(2) translate(-528.1055, -512.4861)translate(10.6055, 13.4861)">
        <g id="Grid" stroke-width="1" fill-rule="evenodd" transform="translate(27.3776, -64.4822)">
            <mask id="mask-2" fill="white">
                <use xlink:href="#path-1"></use>
            </mask>
            <use id="Mask" fill="#FFFFFF" xlink:href="#path-1"></use>
            <g opacity="0.6" mask="url(#mask-2)" stroke="#000000" stroke-width="2">
                <g transform="translate(363, 363) rotate(-2) translate(-363, -363)" opacity="0.49750504">
                    <line x1="726" y1="0" x2="0" y2="726" id="Diagonal"></line>
                    <line x1="726" y1="726" x2="0" y2="0" id="Diagonal"></line>
                    <line x1="726" y1="363" x2="0" y2="363" id="Horizontal"></line>
                    <line x1="726" y1="453.75" x2="0" y2="453.75" id="Horizontal"></line>
                    <line x1="726" y1="544.5" x2="0" y2="544.5" id="Horizontal"></line>
                    <line x1="726" y1="635.25" x2="0" y2="635.25" id="Horizontal"></line>
                    <line x1="726" y1="272.25" x2="0" y2="272.25" id="Horizontal"></line>
                    <line x1="726" y1="181.5" x2="0" y2="181.5" id="Horizontal"></line>
                    <line x1="726" y1="90.75" x2="0" y2="90.75" id="Horizontal"></line>
                    <line x1="363" y1="0" x2="363" y2="726" id="Vertical"></line>
                    <line x1="272.25" y1="726" x2="272.25" y2="0" id="Vertical"></line>
                    <line x1="181.5" y1="726" x2="181.5" y2="0" id="Vertical"></line>
                    <line x1="90.75" y1="726" x2="90.75" y2="0" id="Vertical"></line>
                    <line x1="453.75" y1="726" x2="453.75" y2="0" id="Vertical"></line>
                    <line x1="544.5" y1="726" x2="544.5" y2="0" id="Vertical"></line>
                    <line x1="635.25" y1="726" x2="635.25" y2="0" id="Vertical"></line>
                    <path d="M363,181.5 C463.239756,181.5 544.5,262.760244 544.5,363 C544.5,463.239756 463.239756,544.5 363,544.5 C262.760244,544.5 181.5,463.239756 181.5,363 C181.5,262.760244 262.760244,181.5 363,181.5 Z" id="Circle:-Medium"></path>
                </g>
            </g>
        </g>
        <path d="M575.767869,91.0372022 L578.318133,94.8905442 L582.930249,94.6068673 C585.276738,94.462542 587.646441,94.3902439 590.034491,94.3902439 C653.712578,94.3902439 705.325527,145.870417 705.325527,209.364111 C705.325527,214.931334 704.92935,220.446482 704.145573,225.882422 L703.421335,230.905431 L707.656926,233.700946 C748.029089,260.34681 773,306.417137 773,356.950784 C773,437.674234 709.782235,503.008711 631.933255,503.008711 C630.613852,503.008711 629.29669,502.989979 627.981999,502.952581 L624.033887,502.840273 L621.54413,505.906428 C596.98713,536.148567 560.157456,554.057491 520.361827,554.057491 C503.840148,554.057491 487.757608,550.99087 472.723609,545.091781 L468.286857,543.350874 L464.643613,546.423707 C432.823399,573.261926 389.400006,588.697735 342.944965,588.697735 C284.30453,588.697735 230.87517,564.02672 199.722977,524.188 L196.609411,520.206242 L191.676475,521.308436 C181.064679,523.679491 170.156239,524.88676 159.085207,524.88676 C75.6686698,524.88676 8,456.254475 8,371.53615 C8,314.485252 38.9528525,263.001689 87.5370598,236.435604 L92.0279451,233.979966 L91.6804852,228.873354 C91.4653308,225.711233 91.357458,222.522269 91.357458,219.311411 C91.357458,141.67234 154.509445,78.7229965 232.424203,78.7229965 C244.134373,78.7229965 255.650554,80.1433388 266.79643,82.923893 L271.870771,84.1897857 L275.066063,80.049551 C309.885625,34.9328003 363.453568,8 421.483659,8 C484.280774,8 541.709063,39.5757598 575.767869,91.0372022 Z" id="Combined-Shape" stroke="url(#linearGradient-3)" stroke-width="16"></path>
        <path d="M409.379757,204.358278 C426.217411,202.352016 440.870908,205.981106 453.544796,215.884779 C457.039725,218.615806 460.181894,222.736951 461.683302,226.870472 C465.186854,236.516516 457.535747,244.688571 447.507662,242.50815 C444.839439,241.928041 442.006909,240.713628 439.94486,238.9729 C425.60112,226.863826 411.057199,227.119622 396.080149,237.644309 C394.562185,238.711031 392.814835,239.554097 391.055643,240.160846 C385.52373,242.068915 379.286072,240.059386 375.993738,235.476148 C372.761194,230.976149 372.961603,224.388767 376.976357,219.851244 C383.434661,212.551759 392.270405,209.158758 401.211471,206.115907 C403.570283,205.313115 406.099381,205.00742 409.379757,204.358278" id="Shape" fill="#000000" fill-rule="nonzero"></path>
        <path d="M515.789227,173.722125 C528.921188,173.722125 539.566745,184.367683 539.566745,197.499643 L539.566745,253.86534 C539.566745,266.9973 528.921188,277.642857 515.789227,277.642857 C502.657267,277.642857 492.01171,266.9973 492.01171,253.86534 L492.01171,197.499643 C492.01171,184.367683 502.657267,173.722125 515.789227,173.722125 Z" id="Rectangle" fill="#000000" fill-rule="evenodd"></path>
        <path d="M337.417874,279.711266 C334.490506,275.698741 332.378669,278.213861 330.493568,279.901381 C324.070136,285.651292 317.961142,291.763887 311.343958,297.27713 C308.526354,299.624732 304.917795,301.5751 301.36581,302.374454 C296.676868,303.42965 292.534561,301.262387 290.049089,296.994021 C287.62822,292.836736 287.399135,288.486512 290.346708,284.431238 C291.906449,282.285376 293.6393,280.204752 295.58458,278.405498 C305.403924,269.323188 315.201097,260.211166 325.230467,251.361123 C337.498367,240.535834 349.261244,243.429339 355.0487,258.913655 C362.545089,278.969706 374.612902,295.473802 392.249626,307.731042 C412.624552,321.89123 435.09952,327.888833 459.936106,324.140515 C463.160656,323.653873 466.474436,323.322366 469.718208,323.484778 C475.509705,323.774786 478.464595,326.425595 479.785586,331.801412 C481.062452,336.998574 479.643711,341.405833 475.113571,344.12579 C472.640223,345.610864 469.684677,346.65965 466.822295,347.092244 C417.693137,354.51767 378.527817,337.691953 348.836714,298.50821 C344.559523,292.863516 341.393515,286.385735 337.417874,279.711266 Z" id="Path-Copy" fill="#000000" fill-rule="evenodd"></path>
    </g>
</svg>